<svg xmlns="http://www.w3.org/2000/svg" viewBox="0 0 512 512" width="512" height="512">
  <defs>
    <linearGradient id="bg" x1="0%" y1="0%" x2="100%" y2="100%">
      <stop offset="0%" stop-color="#0f172a" />
      <stop offset="50%" stop-color="#064e3b" />
      <stop offset="100%" stop-color="#022c22" />
    </linearGradient>
    <linearGradient id="leaf" x1="0%" y1="0%" x2="100%" y2="100%">
      <stop offset="0%" stop-color="#4ade80" />
      <stop offset="100%" stop-color="#10b981" />
    </linearGradient>
    <filter id="glow" x="-20%" y="-20%" width="140%" height="140%">
      <feGaussianBlur stdDeviation="12" result="blur" />
      <feComposite in="SourceGraphic" in2="blur" operator="over" />
    </filter>
  </defs>
  
  <rect width="512" height="512" rx="128" fill="url(#bg)" />
  <circle cx="256" cy="256" r="196" fill="none" stroke="url(#leaf)" stroke-width="12" stroke-dasharray="24 12" opacity="0.4" />
  
  <g filter="url(#glow)" transform="translate(0, 10)">
    <path d="M256 120 C320 120 380 180 380 260 C380 340 310 400 256 420 C202 400 132 340 132 260 C132 180 192 120 256 120 Z" fill="url(#leaf)" opacity="0.9" />
    <path d="M256 140 L256 400 M256 220 L320 180 M256 280 L340 240 M256 340 L310 310 M256 220 L192 180 M256 280 L172 240 M256 340 L202 310" stroke="#022c22" stroke-width="14" stroke-linecap="round" stroke-linejoin="round" fill="none" />
  </g>
  
  <text x="256" y="275" font-family="sans-serif" font-size="160" text-anchor="middle" dominant-baseline="central">🦌</text>
</svg>
